<svg width="15" height="15" viewBox="0 0 15 15" fill="none" xmlns="http://www.w3.org/2000/svg">
<path d="M3.82812 7.5936C4.09896 6.9061 4.42448 6.24464 4.80469 5.60922C5.1849 4.97381 5.61458 4.37485 6.09375 3.81235L5.28125 3.64047C5.07292 3.5988 4.86979 3.60922 4.67188 3.67172C4.47396 3.73422 4.30208 3.83839 4.15625 3.98422L2.1875 5.95297C2.03125 6.10922 1.97135 6.29672 2.00781 6.51547C2.04427 6.73422 2.16667 6.88526 2.375 6.9686L3.82812 7.5936ZM13.0156 1.49985C11.9115 1.44776 10.862 1.66131 9.86719 2.14047C8.8724 2.61964 7.98438 3.24985 7.20312 4.0311C6.70312 4.5311 6.26302 5.07276 5.88281 5.6561C5.5026 6.23943 5.17188 6.85401 4.89062 7.49985C4.83854 7.63526 4.8125 7.77328 4.8125 7.91391C4.8125 8.05453 4.86458 8.17693 4.96875 8.2811L6.92188 10.2342C7.02604 10.3384 7.14844 10.3905 7.28906 10.3905C7.42969 10.3905 7.56771 10.3644 7.70312 10.3123C8.34896 10.0311 8.96354 9.70037 9.54688 9.32016C10.1302 8.93995 10.6719 8.49985 11.1719 7.99985C11.9531 7.2186 12.5833 6.33058 13.0625 5.33578C13.5417 4.34099 13.7552 3.29151 13.7031 2.18735C13.7031 2.10401 13.6823 2.02068 13.6406 1.93735C13.599 1.85401 13.5469 1.7811 13.4844 1.7186C13.4219 1.6561 13.349 1.60401 13.2656 1.56235C13.1823 1.52068 13.099 1.49985 13.0156 1.49985ZM9.04688 6.1561C8.80729 5.91651 8.6875 5.62224 8.6875 5.27328C8.6875 4.92433 8.80729 4.63005 9.04688 4.39047C9.28646 4.15089 9.58073 4.0311 9.92969 4.0311C10.2786 4.0311 10.5729 4.15089 10.8125 4.39047C11.0521 4.63005 11.1719 4.92433 11.1719 5.27328C11.1719 5.62224 11.0521 5.91651 10.8125 6.1561C10.5729 6.39568 10.2786 6.51547 9.92969 6.51547C9.58073 6.51547 9.28646 6.39568 9.04688 6.1561ZM7.60938 11.3748L8.23438 12.828C8.31771 13.0363 8.46875 13.1613 8.6875 13.203C8.90625 13.2446 9.09375 13.1873 9.25 13.0311L11.2188 11.0623C11.3646 10.9165 11.4688 10.742 11.5312 10.5389C11.5938 10.3358 11.6042 10.1301 11.5625 9.92172L11.4062 9.10922C10.8333 9.58839 10.2318 10.0181 9.60156 10.3983C8.97135 10.7785 8.30729 11.104 7.60938 11.3748ZM2.53125 10.0311C2.89583 9.66651 3.33854 9.48162 3.85938 9.47641C4.38021 9.4712 4.82292 9.65089 5.1875 10.0155C5.55208 10.3801 5.73438 10.8228 5.73438 11.3436C5.73438 11.8644 5.55208 12.3071 5.1875 12.6717C4.6875 13.1717 4.09635 13.4686 3.41406 13.5623C2.73177 13.6561 2.04688 13.7498 1.35938 13.8436C1.45312 13.1561 1.54948 12.4712 1.64844 11.7889C1.7474 11.1066 2.04167 10.5207 2.53125 10.0311Z" fill="#EAEAEA"/>
</svg>
