<svg width="8" height="13" viewBox="0 0 8 13" fill="none" xmlns="http://www.w3.org/2000/svg">
<path d="M4.14736 6.49961L0.473609 2.82561C0.224276 2.57644 0.0996094 2.26778 0.0996094 1.89961C0.0996094 1.53144 0.224276 1.22278 0.473609 0.97361C0.722776 0.724277 1.03144 0.599609 1.39961 0.599609C1.76778 0.599609 2.07644 0.724277 2.32561 0.97361L6.91161 5.55936C7.03978 5.68769 7.13653 5.83369 7.20186 5.99736C7.26703 6.16119 7.29961 6.32861 7.29961 6.49961C7.29961 6.67061 7.26703 6.83803 7.20186 7.00186C7.13653 7.16553 7.03978 7.31153 6.91161 7.43986L2.32561 12.0256C2.07644 12.2749 1.76778 12.3996 1.39961 12.3996C1.03144 12.3996 0.722776 12.2749 0.473609 12.0256C0.224276 11.7764 0.0996094 11.4678 0.0996094 11.0996C0.0996094 10.7314 0.224276 10.4228 0.473609 10.1736L4.14736 6.49961Z" fill="#E8EAED"/>
</svg>
