<svg width="334" height="152" viewBox="0 0 334 152" fill="none" xmlns="http://www.w3.org/2000/svg">
<g clip-path="url(#clip0_239_2503)">
<rect width="334" height="151.105" rx="10" fill="white" fill-opacity="0.1"/>
<g filter="url(#filter0_d_239_2503)">
<path d="M13.7935 68.1993C23.9101 66.2631 47.5874 62.9715 61.3632 65.295C78.583 68.1993 83.9642 79.3696 97.5248 76.0185C111.085 72.6674 140.574 48.9862 161.023 58.5927C181.471 68.1993 188.144 93.4442 213.543 76.0185C238.943 58.5927 236.79 49.4331 257.884 51.2203C278.979 53.0076 313.634 59.0396 326.118 51.2203" stroke="url(#paint0_linear_239_2503)" stroke-width="1.75194" stroke-linecap="round"/>
</g>
<path d="M13.7935 93.6381C23.9101 91.7408 37.2555 81.9476 51.0313 84.2244C68.2511 87.0704 75.5696 105.901 89.1302 102.617C102.691 99.3331 138.907 80.3255 161.023 84.2244C188.359 89.0438 184.485 110.714 209.884 93.6381C235.283 76.5622 250.781 86.8545 271.876 88.6059C292.97 90.3573 313.634 84.6623 326.118 77" stroke="#6AD2FF" stroke-width="1.75194" stroke-linecap="round"/>
<ellipse cx="153.482" cy="56.5742" rx="3.0124" ry="3.50388" fill="#4318FF"/>
<ellipse cx="153.482" cy="56.5737" rx="1.88274" ry="2.18992" fill="white"/>
<path d="M141.108 38.6172C141.108 37.1658 142.285 35.9893 143.736 35.9893H163.891C165.343 35.9893 166.519 37.1658 166.519 38.6172V45.9015C166.519 47.3529 165.343 48.5294 163.891 48.5294H158.039C156.55 48.5294 155.142 49.2088 154.216 50.3744C154.01 50.6333 153.617 50.6333 153.411 50.3744C152.485 49.2088 151.078 48.5294 149.589 48.5294H143.736C142.285 48.5294 141.108 47.3529 141.108 45.9015V38.6172Z" fill="#4318FF"/>
<path d="M146.448 44.0031V43.6322C146.137 43.5968 145.883 43.4876 145.687 43.3046C145.491 43.1215 145.39 42.8758 145.383 42.5674H146.034C146.04 42.6959 146.079 42.8083 146.149 42.9047C146.223 43.001 146.323 43.0669 146.448 43.1022V42.0856C146.419 42.076 146.389 42.0664 146.357 42.0567C146.328 42.0471 146.297 42.0375 146.265 42.0278C146.005 41.9379 145.806 41.8223 145.668 41.6809C145.533 41.5396 145.465 41.3517 145.465 41.1173C145.462 40.841 145.552 40.6194 145.735 40.4524C145.918 40.2822 146.156 40.1842 146.448 40.1585V39.7683H146.771V40.1633C147.06 40.1922 147.293 40.2934 147.469 40.4668C147.649 40.6371 147.744 40.8571 147.754 41.1269H147.094C147.09 41.0337 147.06 40.9486 147.002 40.8715C146.948 40.7912 146.87 40.735 146.771 40.7029V41.599C146.797 41.6087 146.822 41.6183 146.848 41.6279C146.874 41.6344 146.899 41.6424 146.925 41.652C147.092 41.7098 147.245 41.7773 147.383 41.8544C147.521 41.9315 147.632 42.0342 147.715 42.1627C147.799 42.288 147.84 42.4502 147.84 42.6493C147.84 42.8163 147.799 42.9721 147.715 43.1167C147.635 43.2612 147.514 43.3816 147.354 43.478C147.196 43.5711 147.002 43.6241 146.771 43.637V44.0031H146.448ZM146.111 41.0739C146.111 41.1767 146.141 41.2602 146.202 41.3244C146.263 41.3854 146.345 41.4384 146.448 41.4834V40.6837C146.349 40.7029 146.267 40.7463 146.202 40.8137C146.141 40.8812 146.111 40.9679 146.111 41.0739ZM147.185 42.6927C147.185 42.5642 147.147 42.463 147.07 42.3892C146.993 42.3153 146.893 42.2527 146.771 42.2013V43.1167C146.899 43.0974 147.001 43.0508 147.074 42.9769C147.148 42.9031 147.185 42.8083 147.185 42.6927ZM148.2 43.584V43.1359C148.406 42.9657 148.605 42.7971 148.798 42.6301C148.994 42.463 149.167 42.2976 149.318 42.1338C149.472 41.97 149.594 41.811 149.684 41.6569C149.777 41.4995 149.824 41.3469 149.824 41.1992C149.824 41.061 149.785 40.939 149.708 40.833C149.634 40.727 149.511 40.674 149.337 40.674C149.161 40.674 149.027 40.7318 148.937 40.8475C148.847 40.9631 148.802 41.1028 148.802 41.2666H148.205C148.211 41.0193 148.266 40.8137 148.369 40.6499C148.472 40.4829 148.608 40.3593 148.778 40.279C148.949 40.1954 149.14 40.1537 149.352 40.1537C149.695 40.1537 149.962 40.2484 150.151 40.4379C150.344 40.6242 150.441 40.8667 150.441 41.1654C150.441 41.3517 150.397 41.5332 150.31 41.7098C150.227 41.8865 150.116 42.0567 149.978 42.2205C149.84 42.3843 149.691 42.5385 149.53 42.6831C149.369 42.8244 149.214 42.9561 149.063 43.0781H150.522V43.584H148.2ZM150.856 43.584V43.1359C151.062 42.9657 151.261 42.7971 151.454 42.6301C151.65 42.463 151.823 42.2976 151.974 42.1338C152.128 41.97 152.25 41.811 152.34 41.6569C152.433 41.4995 152.48 41.3469 152.48 41.1992C152.48 41.061 152.441 40.939 152.364 40.833C152.29 40.727 152.167 40.674 151.993 40.674C151.817 40.674 151.683 40.7318 151.593 40.8475C151.503 40.9631 151.458 41.1028 151.458 41.2666H150.861C150.867 41.0193 150.922 40.8137 151.025 40.6499C151.128 40.4829 151.264 40.3593 151.434 40.279C151.605 40.1954 151.796 40.1537 152.008 40.1537C152.351 40.1537 152.618 40.2484 152.807 40.4379C153 40.6242 153.097 40.8667 153.097 41.1654C153.097 41.3517 153.053 41.5332 152.966 41.7098C152.883 41.8865 152.772 42.0567 152.634 42.2205C152.496 42.3843 152.347 42.5385 152.186 42.6831C152.025 42.8244 151.87 42.9561 151.719 43.0781H153.178V43.584H150.856ZM153.96 43.584V40.9149L153.406 41.045V40.5728L154.22 40.2115H154.601V43.584H153.96ZM155.409 43.6177C155.297 43.6177 155.204 43.5824 155.13 43.5117C155.059 43.4411 155.024 43.3559 155.024 43.2564C155.024 43.1536 155.059 43.0669 155.13 42.9962C155.204 42.9255 155.297 42.8902 155.409 42.8902C155.522 42.8902 155.613 42.9255 155.684 42.9962C155.758 43.0669 155.795 43.1536 155.795 43.2564C155.795 43.3559 155.758 43.4411 155.684 43.5117C155.613 43.5824 155.522 43.6177 155.409 43.6177ZM157.41 43.6418C157.098 43.6418 156.831 43.5695 156.61 43.425C156.388 43.2772 156.216 43.0733 156.094 42.8131C155.975 42.5498 155.916 42.2446 155.916 41.8977C155.916 41.5541 155.975 41.2505 156.094 40.9872C156.216 40.7238 156.388 40.5198 156.61 40.3753C156.831 40.2276 157.098 40.1537 157.41 40.1537C157.721 40.1537 157.988 40.2276 158.209 40.3753C158.431 40.5198 158.601 40.7238 158.72 40.9872C158.842 41.2505 158.903 41.5541 158.903 41.8977C158.903 42.2446 158.842 42.5498 158.72 42.8131C158.601 43.0733 158.431 43.2772 158.209 43.425C157.988 43.5695 157.721 43.6418 157.41 43.6418ZM157.41 43.0877C157.663 43.0877 157.87 42.9818 158.031 42.7698C158.192 42.5578 158.272 42.2671 158.272 41.8977C158.272 41.5284 158.192 41.2377 158.031 41.0257C157.87 40.8137 157.663 40.7077 157.41 40.7077C157.153 40.7077 156.944 40.8137 156.783 41.0257C156.626 41.2377 156.547 41.5284 156.547 41.8977C156.547 42.2671 156.626 42.5578 156.783 42.7698C156.944 42.9818 157.153 43.0877 157.41 43.0877ZM160.734 43.6418C160.422 43.6418 160.155 43.5695 159.934 43.425C159.712 43.2772 159.54 43.0733 159.418 42.8131C159.3 42.5498 159.24 42.2446 159.24 41.8977C159.24 41.5541 159.3 41.2505 159.418 40.9872C159.54 40.7238 159.712 40.5198 159.934 40.3753C160.155 40.2276 160.422 40.1537 160.734 40.1537C161.045 40.1537 161.312 40.2276 161.533 40.3753C161.755 40.5198 161.925 40.7238 162.044 40.9872C162.166 41.2505 162.227 41.5541 162.227 41.8977C162.227 42.2446 162.166 42.5498 162.044 42.8131C161.925 43.0733 161.755 43.2772 161.533 43.425C161.312 43.5695 161.045 43.6418 160.734 43.6418ZM160.734 43.0877C160.987 43.0877 161.195 42.9818 161.355 42.7698C161.516 42.5578 161.596 42.2671 161.596 41.8977C161.596 41.5284 161.516 41.2377 161.355 41.0257C161.195 40.8137 160.987 40.7077 160.734 40.7077C160.477 40.7077 160.268 40.8137 160.107 41.0257C159.95 41.2377 159.871 41.5284 159.871 41.8977C159.871 42.2671 159.95 42.5578 160.107 42.7698C160.268 42.9818 160.477 43.0877 160.734 43.0877Z" fill="white"/>
<path d="M15.756 136.063C15.4862 136.063 15.2497 136.016 15.0464 135.921C14.8432 135.827 14.6838 135.692 14.5682 135.516C14.456 135.341 14.3982 135.133 14.3947 134.891H14.9834C14.9869 135.087 15.0552 135.254 15.1883 135.39C15.3215 135.527 15.5089 135.595 15.7507 135.595C15.9644 135.595 16.1309 135.544 16.25 135.443C16.3726 135.338 16.434 135.205 16.434 135.043C16.434 134.914 16.4042 134.809 16.3446 134.728C16.2886 134.648 16.2097 134.581 16.1081 134.528C16.01 134.476 15.8961 134.429 15.7665 134.386C15.6368 134.344 15.5002 134.299 15.3565 134.25C15.0727 134.155 14.859 134.033 14.7153 133.882C14.5752 133.731 14.5051 133.533 14.5051 133.288C14.5016 133.081 14.5489 132.901 14.647 132.747C14.7486 132.592 14.8888 132.473 15.0675 132.389C15.2497 132.302 15.4616 132.258 15.7034 132.258C15.9417 132.258 16.1502 132.302 16.3288 132.389C16.511 132.477 16.653 132.599 16.7546 132.757C16.8562 132.911 16.9087 133.092 16.9122 133.299H16.3236C16.3236 133.204 16.2991 133.115 16.25 133.03C16.201 132.943 16.1291 132.871 16.0345 132.815C15.9399 132.759 15.8243 132.731 15.6876 132.731C15.5124 132.727 15.367 132.771 15.2514 132.862C15.1393 132.953 15.0832 133.08 15.0832 133.241C15.0832 133.384 15.1253 133.495 15.2094 133.572C15.2935 133.649 15.4091 133.714 15.5562 133.766C15.7034 133.815 15.8716 133.873 16.0608 133.94C16.243 133.999 16.4059 134.071 16.5496 134.155C16.6933 134.239 16.8071 134.35 16.8912 134.486C16.9788 134.623 17.0226 134.796 17.0226 135.007C17.0226 135.192 16.9753 135.366 16.8807 135.527C16.7861 135.685 16.6442 135.814 16.455 135.916C16.2658 136.014 16.0328 136.063 15.756 136.063ZM17.5266 136V132.321H19.8654V132.773H18.0837V133.919H19.7078V134.36H18.0837V135.548H19.8654V136H17.5266ZM20.4241 136V132.321H21.7117C21.9991 132.321 22.2373 132.37 22.4265 132.468C22.6157 132.563 22.7559 132.694 22.847 132.862C22.9416 133.027 22.9889 133.214 22.9889 133.425C22.9889 133.624 22.9434 133.808 22.8523 133.977C22.7647 134.141 22.6263 134.273 22.437 134.371C22.2478 134.469 22.0061 134.518 21.7117 134.518H20.9812V136H20.4241ZM20.9812 134.061H21.6855C21.9483 134.061 22.1357 134.005 22.2478 133.892C22.3635 133.777 22.4213 133.621 22.4213 133.425C22.4213 133.221 22.3635 133.064 22.2478 132.952C22.1357 132.836 21.9483 132.778 21.6855 132.778H20.9812V134.061Z" fill="#A3AED0"/>
<path d="M58.2257 136.063C57.8613 136.063 57.5425 135.982 57.2692 135.821C56.9959 135.66 56.7821 135.438 56.628 135.154C56.4738 134.866 56.3967 134.535 56.3967 134.16C56.3967 133.786 56.4738 133.456 56.628 133.172C56.7821 132.885 56.9959 132.661 57.2692 132.5C57.5425 132.338 57.8613 132.258 58.2257 132.258C58.5901 132.258 58.909 132.338 59.1823 132.5C59.4556 132.661 59.6676 132.885 59.8182 133.172C59.9724 133.456 60.0495 133.786 60.0495 134.16C60.0495 134.535 59.9724 134.866 59.8182 135.154C59.6676 135.438 59.4556 135.66 59.1823 135.821C58.909 135.982 58.5901 136.063 58.2257 136.063ZM58.2257 135.564C58.478 135.564 58.697 135.508 58.8827 135.396C59.0719 135.283 59.2191 135.122 59.3242 134.912C59.4293 134.702 59.4819 134.451 59.4819 134.16C59.4819 133.87 59.4293 133.619 59.3242 133.409C59.2191 133.199 59.0719 133.037 58.8827 132.925C58.697 132.813 58.478 132.757 58.2257 132.757C57.9735 132.757 57.7527 132.813 57.5635 132.925C57.3743 133.037 57.2271 133.199 57.122 133.409C57.0204 133.619 56.9696 133.87 56.9696 134.16C56.9696 134.451 57.0204 134.702 57.122 134.912C57.2271 135.122 57.3743 135.283 57.5635 135.396C57.7527 135.508 57.9735 135.564 58.2257 135.564ZM62.2048 136.063C61.8404 136.063 61.5251 135.984 61.2588 135.827C60.996 135.665 60.7928 135.443 60.6491 135.159C60.5055 134.872 60.4336 134.541 60.4336 134.166C60.4336 133.787 60.5055 133.456 60.6491 133.172C60.7928 132.885 60.996 132.661 61.2588 132.5C61.5251 132.338 61.8404 132.258 62.2048 132.258C62.6358 132.258 62.988 132.363 63.2613 132.573C63.5346 132.783 63.708 133.078 63.7816 133.456H63.1614C63.1123 133.242 63.0072 133.073 62.846 132.946C62.6849 132.82 62.4694 132.757 62.1996 132.757C61.8317 132.757 61.5409 132.883 61.3271 133.136C61.1134 133.384 61.0065 133.728 61.0065 134.166C61.0065 134.6 61.1134 134.942 61.3271 135.191C61.5409 135.439 61.8317 135.564 62.1996 135.564C62.4694 135.564 62.6849 135.504 62.846 135.385C63.0072 135.266 63.1123 135.103 63.1614 134.896H63.7816C63.708 135.261 63.5346 135.546 63.2613 135.753C62.988 135.96 62.6358 136.063 62.2048 136.063ZM65.0841 136V132.773H63.9961V132.321H66.7239V132.773H65.6412V136H65.0841Z" fill="#A3AED0"/>
<path d="M99.1839 136V132.321H99.741L101.586 135.091V132.321H102.143V136H101.586L99.741 133.23V136H99.1839ZM104.482 136.063C104.118 136.063 103.799 135.982 103.526 135.821C103.252 135.66 103.039 135.438 102.884 135.154C102.73 134.866 102.653 134.535 102.653 134.16C102.653 133.786 102.73 133.456 102.884 133.172C103.039 132.885 103.252 132.661 103.526 132.5C103.799 132.338 104.118 132.258 104.482 132.258C104.847 132.258 105.165 132.338 105.439 132.5C105.712 132.661 105.924 132.885 106.075 133.172C106.229 133.456 106.306 133.786 106.306 134.16C106.306 134.535 106.229 134.866 106.075 135.154C105.924 135.438 105.712 135.66 105.439 135.821C105.165 135.982 104.847 136.063 104.482 136.063ZM104.482 135.564C104.734 135.564 104.953 135.508 105.139 135.396C105.328 135.283 105.476 135.122 105.581 134.912C105.686 134.702 105.738 134.451 105.738 134.16C105.738 133.87 105.686 133.619 105.581 133.409C105.476 133.199 105.328 133.037 105.139 132.925C104.953 132.813 104.734 132.757 104.482 132.757C104.23 132.757 104.009 132.813 103.82 132.925C103.631 133.037 103.484 133.199 103.378 133.409C103.277 133.619 103.226 133.87 103.226 134.16C103.226 134.451 103.277 134.702 103.378 134.912C103.484 135.122 103.631 135.283 103.82 135.396C104.009 135.508 104.23 135.564 104.482 135.564ZM107.776 136L106.415 132.321H107.009L108.112 135.422L109.221 132.321H109.81L108.449 136H107.776Z" fill="#A3AED0"/>
<path d="M142.42 136V132.321H143.613C144.044 132.321 144.398 132.396 144.674 132.547C144.955 132.698 145.161 132.911 145.295 133.188C145.431 133.461 145.5 133.787 145.5 134.166C145.5 134.541 145.431 134.866 145.295 135.143C145.161 135.417 144.955 135.629 144.674 135.779C144.398 135.926 144.044 136 143.613 136H142.42ZM142.977 135.527H143.592C143.925 135.527 144.187 135.473 144.38 135.364C144.576 135.255 144.716 135.1 144.801 134.896C144.888 134.693 144.932 134.45 144.932 134.166C144.932 133.882 144.888 133.637 144.801 133.43C144.716 133.223 144.576 133.066 144.38 132.957C144.187 132.845 143.925 132.789 143.592 132.789H142.977V135.527ZM146.01 136V132.321H148.349V132.773H146.567V133.919H148.191V134.36H146.567V135.548H148.349V136H146.01ZM150.547 136.063C150.183 136.063 149.868 135.984 149.601 135.827C149.339 135.665 149.135 135.443 148.992 135.159C148.848 134.872 148.776 134.541 148.776 134.166C148.776 133.787 148.848 133.456 148.992 133.172C149.135 132.885 149.339 132.661 149.601 132.5C149.868 132.338 150.183 132.258 150.547 132.258C150.978 132.258 151.33 132.363 151.604 132.573C151.877 132.783 152.051 133.078 152.124 133.456H151.504C151.455 133.242 151.35 133.073 151.189 132.946C151.027 132.82 150.812 132.757 150.542 132.757C150.174 132.757 149.883 132.883 149.67 133.136C149.456 133.384 149.349 133.728 149.349 134.166C149.349 134.6 149.456 134.942 149.67 135.191C149.883 135.439 150.174 135.564 150.542 135.564C150.812 135.564 151.027 135.504 151.189 135.385C151.35 135.266 151.455 135.103 151.504 134.896H152.124C152.051 135.261 151.877 135.546 151.604 135.753C151.33 135.96 150.978 136.063 150.547 136.063Z" fill="#A3AED0"/>
<path d="M186.495 136.063C186.152 136.063 185.878 135.967 185.675 135.774C185.476 135.581 185.376 135.31 185.376 134.959H185.933C185.933 135.135 185.975 135.28 186.059 135.396C186.147 135.511 186.288 135.569 186.485 135.569C186.677 135.569 186.814 135.515 186.895 135.406C186.975 135.294 187.016 135.152 187.016 134.98V132.321H187.573V134.98C187.573 135.327 187.476 135.595 187.284 135.785C187.091 135.97 186.828 136.063 186.495 136.063ZM187.816 136L189.172 132.321H189.782L191.127 136H190.539L190.223 135.101H188.72L188.405 136H187.816ZM188.878 134.66H190.066L189.472 132.983L188.878 134.66ZM191.535 136V132.321H192.092L193.937 135.091V132.321H194.494V136H193.937L192.092 133.23V136H191.535Z" fill="#A3AED0"/>
<path d="M228.825 136V132.321H231.132V132.773H229.382V133.934H230.833V134.381H229.382V136H228.825ZM231.574 136V132.321H233.912V132.773H232.131V133.919H233.755V134.36H232.131V135.548H233.912V136H231.574ZM234.471 136V132.321H235.859C236.241 132.321 236.53 132.41 236.726 132.589C236.922 132.768 237.02 132.992 237.02 133.262C237.02 133.496 236.957 133.684 236.831 133.824C236.705 133.961 236.552 134.054 236.374 134.103C236.514 134.131 236.638 134.187 236.747 134.271C236.859 134.355 236.947 134.46 237.01 134.586C237.073 134.712 237.104 134.849 237.104 134.996C237.104 135.185 237.057 135.357 236.962 135.511C236.871 135.662 236.736 135.781 236.558 135.869C236.379 135.956 236.16 136 235.901 136H234.471ZM235.028 133.898H235.79C236.004 133.898 236.167 133.849 236.279 133.751C236.391 133.649 236.447 133.51 236.447 133.335C236.447 133.164 236.391 133.027 236.279 132.925C236.17 132.824 236.004 132.773 235.78 132.773H235.028V133.898ZM235.028 135.543H235.827C236.051 135.543 236.225 135.49 236.347 135.385C236.474 135.28 236.537 135.133 236.537 134.944C236.537 134.754 236.472 134.605 236.342 134.497C236.213 134.385 236.037 134.329 235.817 134.329H235.028V135.543Z" fill="#A3AED0"/>
<path d="M270.479 136V132.321H271.136L272.382 134.77L273.622 132.321H274.279V136H273.722V133.283L272.598 135.474H272.167L271.037 133.288V136H270.479ZM274.685 136L276.041 132.321H276.651L277.996 136H277.408L277.092 135.101H275.589L275.274 136H274.685ZM275.747 134.66H276.935L276.341 132.983L275.747 134.66ZM278.404 136V132.321H279.671C279.962 132.321 280.2 132.37 280.386 132.468C280.575 132.566 280.715 132.699 280.806 132.868C280.897 133.032 280.943 133.216 280.943 133.419C280.943 133.647 280.882 133.854 280.759 134.04C280.64 134.225 280.452 134.358 280.197 134.439L280.98 136H280.333L279.618 134.518H278.962V136H278.404ZM278.962 134.097H279.64C279.892 134.097 280.076 134.036 280.191 133.913C280.311 133.791 280.37 133.631 280.37 133.435C280.37 133.239 280.312 133.083 280.197 132.967C280.081 132.848 279.894 132.789 279.634 132.789H278.962V134.097Z" fill="#A3AED0"/>
<path d="M313.959 136L315.315 132.321H315.925L317.27 136H316.681L316.366 135.101H314.863L314.548 136H313.959ZM315.021 134.66H316.208L315.614 132.983L315.021 134.66ZM317.678 136V132.321H318.966C319.253 132.321 319.491 132.37 319.68 132.468C319.87 132.563 320.01 132.694 320.101 132.862C320.196 133.027 320.243 133.214 320.243 133.425C320.243 133.624 320.197 133.808 320.106 133.977C320.019 134.141 319.88 134.273 319.691 134.371C319.502 134.469 319.26 134.518 318.966 134.518H318.235V136H317.678ZM318.235 134.061H318.939C319.202 134.061 319.39 134.005 319.502 133.892C319.617 133.777 319.675 133.621 319.675 133.425C319.675 133.221 319.617 133.064 319.502 132.952C319.39 132.836 319.202 132.778 318.939 132.778H318.235V134.061ZM320.688 136V132.321H321.955C322.246 132.321 322.484 132.37 322.67 132.468C322.859 132.566 322.999 132.699 323.09 132.868C323.181 133.032 323.227 133.216 323.227 133.419C323.227 133.647 323.166 133.854 323.043 134.04C322.924 134.225 322.736 134.358 322.481 134.439L323.264 136H322.617L321.902 134.518H321.246V136H320.688ZM321.246 134.097H321.924C322.176 134.097 322.36 134.036 322.475 133.913C322.595 133.791 322.654 133.631 322.654 133.435C322.654 133.239 322.596 133.083 322.481 132.967C322.365 132.848 322.178 132.789 321.918 132.789H321.246V134.097Z" fill="#A3AED0"/>
<rect x="305.531" y="12.2637" width="14.4535" height="14.4535" rx="4.37985" fill="#F4F7FE"/>
<g clip-path="url(#clip1_239_2503)">
<path d="M310.524 18.4821H310.612C310.949 18.4821 311.225 18.758 311.225 19.0953V22.1612C311.225 22.4984 310.949 22.7744 310.612 22.7744H310.524C310.187 22.7744 309.911 22.4984 309.911 22.1612V19.0953C309.911 18.758 310.187 18.4821 310.524 18.4821ZM312.977 16.6426C313.314 16.6426 313.59 16.9185 313.59 17.2558V22.1612C313.59 22.4984 313.314 22.7744 312.977 22.7744C312.64 22.7744 312.364 22.4984 312.364 22.1612V17.2558C312.364 16.9185 312.64 16.6426 312.977 16.6426ZM315.429 20.1465C315.767 20.1465 316.043 20.4224 316.043 20.7596V22.1612C316.043 22.4984 315.767 22.7744 315.429 22.7744C315.092 22.7744 314.816 22.4984 314.816 22.1612V20.7596C314.816 20.4224 315.092 20.1465 315.429 20.1465Z" fill="#4318FF"/>
</g>
<path d="M65.645 26V21.702H64.196V21.1H67.829V21.702H66.387V26H65.645ZM69.3505 26.084C69.0191 26.084 68.7205 26.0093 68.4545 25.86C68.1931 25.706 67.9855 25.4937 67.8315 25.223C67.6775 24.9477 67.6005 24.628 67.6005 24.264C67.6005 23.9 67.6775 23.5827 67.8315 23.312C67.9901 23.0367 68.2025 22.8243 68.4685 22.675C68.7345 22.521 69.0308 22.444 69.3575 22.444C69.6888 22.444 69.9851 22.521 70.2465 22.675C70.5125 22.8243 70.7225 23.0367 70.8765 23.312C71.0351 23.5827 71.1145 23.9 71.1145 24.264C71.1145 24.628 71.0351 24.9477 70.8765 25.223C70.7225 25.4937 70.5125 25.706 70.2465 25.86C69.9805 26.0093 69.6818 26.084 69.3505 26.084ZM69.3505 25.447C69.5278 25.447 69.6911 25.4027 69.8405 25.314C69.9945 25.2253 70.1181 25.0947 70.2115 24.922C70.3048 24.7447 70.3515 24.5253 70.3515 24.264C70.3515 24.0027 70.3048 23.7857 70.2115 23.613C70.1228 23.4357 70.0015 23.3027 69.8475 23.214C69.6981 23.1253 69.5348 23.081 69.3575 23.081C69.1801 23.081 69.0145 23.1253 68.8605 23.214C68.7111 23.3027 68.5898 23.4357 68.4965 23.613C68.4031 23.7857 68.3565 24.0027 68.3565 24.264C68.3565 24.5253 68.4031 24.7447 68.4965 24.922C68.5898 25.0947 68.7111 25.2253 68.8605 25.314C69.0098 25.4027 69.1731 25.447 69.3505 25.447ZM73.0962 26C72.7555 26 72.4848 25.9183 72.2842 25.755C72.0835 25.587 71.9832 25.2907 71.9832 24.866V23.151H71.3882V22.528H71.9832L72.0742 21.646H72.7252V22.528H73.7052V23.151H72.7252V24.866C72.7252 25.0573 72.7648 25.1903 72.8442 25.265C72.9282 25.335 73.0705 25.37 73.2712 25.37H73.6702V26H73.0962ZM75.5063 26.084C75.2122 26.084 74.9696 26.035 74.7783 25.937C74.5869 25.839 74.4446 25.7107 74.3512 25.552C74.2579 25.3887 74.2112 25.2113 74.2112 25.02C74.2112 24.684 74.3419 24.418 74.6032 24.222C74.8646 24.026 75.2379 23.928 75.7232 23.928H76.6333V23.865C76.6333 23.5943 76.5586 23.3913 76.4093 23.256C76.2646 23.1207 76.0756 23.053 75.8423 23.053C75.6369 23.053 75.4572 23.1043 75.3033 23.207C75.1539 23.305 75.0629 23.452 75.0302 23.648H74.2882C74.3116 23.396 74.3956 23.1813 74.5402 23.004C74.6896 22.822 74.8762 22.6843 75.1002 22.591C75.3289 22.493 75.5786 22.444 75.8492 22.444C76.3346 22.444 76.7103 22.5723 76.9763 22.829C77.2423 23.081 77.3753 23.4263 77.3753 23.865V26H76.7313L76.6683 25.405C76.5703 25.5963 76.4279 25.7573 76.2412 25.888C76.0546 26.0187 75.8096 26.084 75.5063 26.084ZM75.6533 25.482C75.8539 25.482 76.0219 25.4353 76.1572 25.342C76.2972 25.244 76.4046 25.1157 76.4793 24.957C76.5586 24.7983 76.6076 24.6233 76.6262 24.432H75.8002C75.5063 24.432 75.2963 24.4833 75.1702 24.586C75.0489 24.6887 74.9883 24.817 74.9883 24.971C74.9883 25.1297 75.0466 25.2557 75.1632 25.349C75.2846 25.4377 75.4479 25.482 75.6533 25.482ZM78.1004 26V20.96H78.8424V26H78.1004ZM82.9107 26.084C82.5514 26.084 82.2364 26.021 81.9657 25.895C81.6951 25.769 81.4827 25.5893 81.3287 25.356C81.1794 25.1227 81.1024 24.845 81.0977 24.523H81.8817C81.8864 24.7843 81.9774 25.006 82.1547 25.188C82.3321 25.37 82.5817 25.461 82.9037 25.461C83.1884 25.461 83.4101 25.3933 83.5687 25.258C83.7321 25.118 83.8137 24.9407 83.8137 24.726C83.8137 24.5533 83.7741 24.4133 83.6947 24.306C83.6201 24.1987 83.5151 24.11 83.3797 24.04C83.2491 23.97 83.0974 23.907 82.9247 23.851C82.7521 23.795 82.5701 23.7343 82.3787 23.669C82.0007 23.543 81.7161 23.3797 81.5247 23.179C81.3381 22.9783 81.2447 22.7147 81.2447 22.388C81.2401 22.1127 81.3031 21.8723 81.4337 21.667C81.5691 21.4617 81.7557 21.303 81.9937 21.191C82.2364 21.0743 82.5187 21.016 82.8407 21.016C83.1581 21.016 83.4357 21.0743 83.6737 21.191C83.9164 21.3077 84.1054 21.471 84.2407 21.681C84.3761 21.8863 84.4461 22.1267 84.4507 22.402H83.6667C83.6667 22.276 83.6341 22.157 83.5687 22.045C83.5034 21.9283 83.4077 21.8327 83.2817 21.758C83.1557 21.6833 83.0017 21.646 82.8197 21.646C82.5864 21.6413 82.3927 21.6997 82.2387 21.821C82.0894 21.9423 82.0147 22.1103 82.0147 22.325C82.0147 22.5163 82.0707 22.6633 82.1827 22.766C82.2947 22.8687 82.4487 22.955 82.6447 23.025C82.8407 23.0903 83.0647 23.1673 83.3167 23.256C83.5594 23.3353 83.7764 23.431 83.9677 23.543C84.1591 23.655 84.3107 23.802 84.4227 23.984C84.5394 24.166 84.5977 24.397 84.5977 24.677C84.5977 24.9243 84.5347 25.1553 84.4087 25.37C84.2827 25.58 84.0937 25.7527 83.8417 25.888C83.5897 26.0187 83.2794 26.084 82.9107 26.084ZM85.241 27.54V22.528H85.906L85.983 23.067C86.095 22.9037 86.249 22.759 86.445 22.633C86.641 22.507 86.893 22.444 87.201 22.444C87.537 22.444 87.8333 22.5233 88.09 22.682C88.3466 22.8407 88.5473 23.0577 88.692 23.333C88.8413 23.6083 88.916 23.921 88.916 24.271C88.916 24.621 88.8413 24.9337 88.692 25.209C88.5473 25.4797 88.3466 25.6943 88.09 25.853C87.8333 26.007 87.5346 26.084 87.194 26.084C86.9233 26.084 86.683 26.0303 86.473 25.923C86.2676 25.8157 86.1043 25.664 85.983 25.468V27.54H85.241ZM87.068 25.44C87.3853 25.44 87.6466 25.3327 87.852 25.118C88.0573 24.8987 88.16 24.614 88.16 24.264C88.16 24.0353 88.1133 23.8323 88.02 23.655C87.9266 23.4777 87.7983 23.34 87.635 23.242C87.4716 23.1393 87.2826 23.088 87.068 23.088C86.7506 23.088 86.4893 23.1977 86.284 23.417C86.0833 23.6363 85.983 23.9187 85.983 24.264C85.983 24.614 86.0833 24.8987 86.284 25.118C86.4893 25.3327 86.7506 25.44 87.068 25.44ZM91.2025 26.084C90.8618 26.084 90.5585 26.0093 90.2925 25.86C90.0312 25.706 89.8258 25.4937 89.6765 25.223C89.5272 24.9523 89.4525 24.6373 89.4525 24.278C89.4525 23.914 89.5248 23.5943 89.6695 23.319C89.8188 23.0437 90.0242 22.829 90.2855 22.675C90.5515 22.521 90.8595 22.444 91.2095 22.444C91.5502 22.444 91.8465 22.521 92.0985 22.675C92.3505 22.8243 92.5465 23.025 92.6865 23.277C92.8265 23.529 92.8965 23.8067 92.8965 24.11C92.8965 24.1567 92.8942 24.208 92.8895 24.264C92.8895 24.3153 92.8872 24.3737 92.8825 24.439H90.1805C90.2038 24.775 90.3135 25.0317 90.5095 25.209C90.7102 25.3817 90.9412 25.468 91.2025 25.468C91.4125 25.468 91.5875 25.4213 91.7275 25.328C91.8722 25.23 91.9795 25.0993 92.0495 24.936H92.7915C92.6982 25.2627 92.5115 25.5357 92.2315 25.755C91.9562 25.9743 91.6132 26.084 91.2025 26.084ZM91.2025 23.053C90.9552 23.053 90.7358 23.1277 90.5445 23.277C90.3532 23.4217 90.2365 23.641 90.1945 23.935H92.1545C92.1405 23.6643 92.0448 23.4497 91.8675 23.291C91.6902 23.1323 91.4685 23.053 91.2025 23.053ZM93.5264 26V22.528H94.1844L94.2404 23.137C94.3477 22.9223 94.504 22.7543 94.7094 22.633C94.9194 22.507 95.1597 22.444 95.4304 22.444C95.8504 22.444 96.1794 22.5747 96.4174 22.836C96.66 23.0973 96.7814 23.487 96.7814 24.005V26H96.0464V24.082C96.0464 23.41 95.771 23.074 95.2204 23.074C94.945 23.074 94.7164 23.172 94.5344 23.368C94.357 23.564 94.2684 23.844 94.2684 24.208V26H93.5264ZM98.9713 26C98.6306 26 98.36 25.9183 98.1593 25.755C97.9586 25.587 97.8583 25.2907 97.8583 24.866V23.151H97.2633V22.528H97.8583L97.9493 21.646H98.6003V22.528H99.5803V23.151H98.6003V24.866C98.6003 25.0573 98.64 25.1903 98.7193 25.265C98.8033 25.335 98.9456 25.37 99.1463 25.37H99.5453V26H98.9713Z" fill="#A3AED0"/>
<path d="M17.8853 29.218V16.912H18.8093V29.218H17.8853ZM18.4733 28.168C17.764 28.168 17.1293 28.0467 16.5693 27.804C16.0186 27.5613 15.58 27.2067 15.2533 26.74C14.936 26.2733 14.7726 25.7087 14.7633 25.046H16.7653C16.7746 25.3353 16.8493 25.5967 16.9893 25.83C17.1293 26.0633 17.3206 26.25 17.5633 26.39C17.8153 26.5207 18.114 26.586 18.4593 26.586C18.758 26.586 19.0146 26.5393 19.2293 26.446C19.4533 26.3433 19.626 26.2033 19.7473 26.026C19.8686 25.8487 19.9293 25.6387 19.9293 25.396C19.9293 25.116 19.8593 24.8827 19.7193 24.696C19.5886 24.5093 19.402 24.3507 19.1593 24.22C18.926 24.0893 18.6506 23.9727 18.3333 23.87C18.0253 23.758 17.6986 23.6413 17.3533 23.52C16.5786 23.268 15.986 22.932 15.5753 22.512C15.174 22.092 14.9733 21.5367 14.9733 20.846C14.9733 20.258 15.1133 19.754 15.3933 19.334C15.6826 18.914 16.0793 18.592 16.5833 18.368C17.0873 18.144 17.6613 18.032 18.3053 18.032C18.968 18.032 19.5466 18.1487 20.0413 18.382C20.5453 18.606 20.942 18.9327 21.2313 19.362C21.53 19.7913 21.684 20.2953 21.6933 20.874H19.6773C19.668 20.6593 19.6026 20.4587 19.4813 20.272C19.3693 20.076 19.2106 19.922 19.0053 19.81C18.8 19.6887 18.5573 19.628 18.2773 19.628C18.0346 19.6187 17.8106 19.656 17.6053 19.74C17.4093 19.824 17.2506 19.95 17.1293 20.118C17.0173 20.2767 16.9613 20.4773 16.9613 20.72C16.9613 20.9533 17.0173 21.1493 17.1293 21.308C17.2506 21.4667 17.414 21.6067 17.6193 21.728C17.8246 21.84 18.0673 21.9473 18.3473 22.05C18.6273 22.1433 18.9306 22.2413 19.2573 22.344C19.7426 22.512 20.1906 22.7127 20.6013 22.946C21.012 23.17 21.3386 23.464 21.5813 23.828C21.824 24.192 21.9453 24.6727 21.9453 25.27C21.9453 25.7833 21.81 26.2593 21.5393 26.698C21.2686 27.1367 20.8766 27.4913 20.3633 27.762C19.8593 28.0327 19.2293 28.168 18.4733 28.168ZM23.0162 28V26.614C23.6135 26.138 24.1922 25.662 24.7522 25.186C25.3215 24.71 25.8302 24.2387 26.2782 23.772C26.7262 23.296 27.0809 22.834 27.3422 22.386C27.6035 21.938 27.7342 21.504 27.7342 21.084C27.7342 20.8227 27.6875 20.5847 27.5942 20.37C27.5009 20.146 27.3515 19.9687 27.1462 19.838C26.9502 19.698 26.6889 19.628 26.3622 19.628C26.0355 19.628 25.7602 19.7027 25.5362 19.852C25.3122 20.0013 25.1442 20.202 25.0322 20.454C24.9202 20.6967 24.8642 20.972 24.8642 21.28H23.0302C23.0582 20.5613 23.2215 19.9593 23.5202 19.474C23.8189 18.9887 24.2202 18.6293 24.7242 18.396C25.2282 18.1533 25.7929 18.032 26.4182 18.032C27.1089 18.032 27.6922 18.1627 28.1682 18.424C28.6442 18.676 29.0035 19.0213 29.2462 19.46C29.4982 19.8987 29.6242 20.4027 29.6242 20.972C29.6242 21.4013 29.5449 21.8213 29.3862 22.232C29.2369 22.6427 29.0222 23.044 28.7422 23.436C28.4715 23.8187 28.1635 24.1873 27.8182 24.542C27.4729 24.8967 27.1135 25.2373 26.7402 25.564C26.3669 25.8813 26.0029 26.18 25.6482 26.46H29.8622V28H23.0162ZM34.7643 28.168C34.0269 28.168 33.4016 28.0327 32.8883 27.762C32.3843 27.4913 31.9783 27.1273 31.6703 26.67C31.3716 26.2127 31.1523 25.704 31.0123 25.144C30.8816 24.5747 30.8163 24.0007 30.8163 23.422C30.8163 22.3207 30.9703 21.3687 31.2783 20.566C31.5863 19.7633 32.0296 19.1427 32.6083 18.704C33.1869 18.256 33.8869 18.032 34.7083 18.032C35.3989 18.032 35.9823 18.1673 36.4583 18.438C36.9343 18.6993 37.3029 19.0447 37.5643 19.474C37.8256 19.9033 37.9796 20.3653 38.0263 20.86H36.2623C36.1876 20.4493 36.0149 20.1367 35.7443 19.922C35.4736 19.698 35.1236 19.586 34.6943 19.586C34.2929 19.586 33.9429 19.7073 33.6443 19.95C33.3456 20.1927 33.1123 20.5567 32.9443 21.042C32.7856 21.5273 32.6923 22.1387 32.6643 22.876C32.6643 22.8853 32.6643 22.8993 32.6643 22.918C32.6643 22.9367 32.6643 22.9507 32.6643 22.96C32.8136 22.708 33.0096 22.484 33.2523 22.288C33.4949 22.092 33.7749 21.938 34.0923 21.826C34.4096 21.714 34.7456 21.658 35.1003 21.658C35.6416 21.658 36.1456 21.7887 36.6123 22.05C37.0789 22.3113 37.4569 22.68 37.7463 23.156C38.0356 23.632 38.1803 24.1967 38.1803 24.85C38.1803 25.438 38.0356 25.9887 37.7463 26.502C37.4663 27.006 37.0696 27.412 36.5563 27.72C36.0429 28.0187 35.4456 28.168 34.7643 28.168ZM34.6523 26.544C34.9883 26.544 35.2823 26.474 35.5343 26.334C35.7956 26.194 36.0009 26.0027 36.1503 25.76C36.2996 25.508 36.3743 25.2233 36.3743 24.906C36.3743 24.57 36.2996 24.2807 36.1503 24.038C36.0009 23.7953 35.7956 23.604 35.5343 23.464C35.2729 23.324 34.9743 23.254 34.6383 23.254C34.3116 23.254 34.0176 23.324 33.7563 23.464C33.4949 23.604 33.2849 23.8 33.1263 24.052C32.9769 24.2947 32.9023 24.5747 32.9023 24.892C32.9023 25.2187 32.9769 25.508 33.1263 25.76C33.2849 26.0027 33.4949 26.194 33.7563 26.334C34.0269 26.474 34.3256 26.544 34.6523 26.544ZM40.0088 28.07C39.6541 28.07 39.3695 27.9673 39.1548 27.762C38.9401 27.5473 38.8328 27.286 38.8328 26.978C38.8328 26.67 38.9401 26.4133 39.1548 26.208C39.3695 25.9933 39.6541 25.886 40.0088 25.886C40.3448 25.886 40.6201 25.9933 40.8348 26.208C41.0495 26.4133 41.1568 26.67 41.1568 26.978C41.1568 27.286 41.0495 27.5473 40.8348 27.762C40.6201 27.9673 40.3448 28.07 40.0088 28.07ZM46.9241 28V26.222H42.1081V24.724L46.6721 18.2H48.8141V24.584H50.0881V26.222H48.8141V28H46.9241ZM44.1241 24.584H47.0501V20.286L44.1241 24.584ZM51.2696 28V18.2H53.1596V22.078L56.7016 18.2H59.0256L55.4276 22.078L59.1376 28H56.8276L54.0696 23.548L53.1596 24.528V28H51.2696Z" fill="#2B3674"/>
<path d="M111.624 24.1305V23.5955H112.564V22.7305H113.109V23.5955H114.044V24.1305H113.109V24.9955H112.564V24.1305H111.624ZM116.167 25.3105V24.6605H114.442V24.1505L116.082 21.8105H116.807V24.1055H117.267V24.6605H116.807V25.3105H116.167ZM115.127 24.1055H116.207V22.5155L115.127 24.1055ZM117.93 25.3455C117.814 25.3455 117.717 25.3089 117.64 25.2355C117.567 25.1622 117.53 25.0739 117.53 24.9705C117.53 24.8639 117.567 24.7739 117.64 24.7005C117.717 24.6272 117.814 24.5905 117.93 24.5905C118.047 24.5905 118.142 24.6272 118.215 24.7005C118.292 24.7739 118.33 24.8639 118.33 24.9705C118.33 25.0739 118.292 25.1622 118.215 25.2355C118.142 25.3089 118.047 25.3455 117.93 25.3455ZM119.815 25.3705C119.572 25.3705 119.367 25.3239 119.2 25.2305C119.034 25.1339 118.904 25.0089 118.81 24.8555C118.717 24.7022 118.662 24.5372 118.645 24.3605H119.24C119.267 24.5139 119.33 24.6322 119.43 24.7155C119.534 24.7989 119.664 24.8405 119.82 24.8405C120.044 24.8405 120.224 24.7389 120.36 24.5355C120.497 24.3289 120.57 24.0155 120.58 23.5955C120.5 23.7322 120.379 23.8455 120.215 23.9355C120.055 24.0255 119.879 24.0705 119.685 24.0705C119.492 24.0705 119.31 24.0239 119.14 23.9305C118.97 23.8372 118.832 23.7055 118.725 23.5355C118.619 23.3655 118.565 23.1655 118.565 22.9355C118.565 22.7255 118.617 22.5305 118.72 22.3505C118.824 22.1705 118.967 22.0255 119.15 21.9155C119.334 21.8055 119.549 21.7505 119.795 21.7505C120.059 21.7505 120.28 21.7989 120.46 21.8955C120.64 21.9922 120.784 22.1222 120.89 22.2855C121 22.4489 121.079 22.6305 121.125 22.8305C121.175 23.0305 121.2 23.2355 121.2 23.4455C121.2 23.8355 121.145 24.1755 121.035 24.4655C120.929 24.7522 120.77 24.9755 120.56 25.1355C120.354 25.2922 120.105 25.3705 119.815 25.3705ZM119.835 23.5305C119.959 23.5305 120.07 23.5039 120.17 23.4505C120.27 23.3939 120.349 23.3205 120.405 23.2305C120.462 23.1372 120.49 23.0339 120.49 22.9205C120.49 22.7405 120.427 22.5922 120.3 22.4755C120.177 22.3589 120.02 22.3005 119.83 22.3005C119.644 22.3005 119.489 22.3589 119.365 22.4755C119.242 22.5889 119.18 22.7339 119.18 22.9105C119.18 23.0972 119.242 23.2472 119.365 23.3605C119.489 23.4739 119.645 23.5305 119.835 23.5305ZM122.025 25.3105V22.5405L121.45 22.6755V22.1855L122.295 21.8105H122.69V25.3105H122.025ZM123.989 23.5305C123.829 23.5305 123.684 23.4955 123.554 23.4255C123.424 23.3522 123.321 23.2489 123.244 23.1155C123.167 22.9822 123.129 22.8239 123.129 22.6405C123.129 22.4572 123.167 22.2989 123.244 22.1655C123.321 22.0322 123.424 21.9305 123.554 21.8605C123.684 21.7872 123.831 21.7505 123.994 21.7505C124.154 21.7505 124.297 21.7872 124.424 21.8605C124.554 21.9305 124.657 22.0322 124.734 22.1655C124.811 22.2989 124.849 22.4572 124.849 22.6405C124.849 22.8239 124.811 22.9822 124.734 23.1155C124.657 23.2489 124.554 23.3522 124.424 23.4255C124.294 23.4955 124.149 23.5305 123.989 23.5305ZM123.799 25.3105L125.774 21.8105H126.399L124.424 25.3105H123.799ZM123.989 23.0855C124.086 23.0855 124.169 23.0489 124.239 22.9755C124.309 22.8989 124.344 22.7872 124.344 22.6405C124.344 22.4939 124.309 22.3822 124.239 22.3055C124.172 22.2289 124.089 22.1905 123.989 22.1905C123.889 22.1905 123.804 22.2289 123.734 22.3055C123.667 22.3822 123.634 22.4939 123.634 22.6405C123.634 22.7872 123.667 22.8989 123.734 22.9755C123.804 23.0489 123.889 23.0855 123.989 23.0855ZM126.229 25.3705C126.069 25.3705 125.924 25.3355 125.794 25.2655C125.664 25.1922 125.561 25.0889 125.484 24.9555C125.407 24.8222 125.369 24.6639 125.369 24.4805C125.369 24.2972 125.407 24.1405 125.484 24.0105C125.561 23.8772 125.664 23.7755 125.794 23.7055C125.924 23.6322 126.071 23.5955 126.234 23.5955C126.394 23.5955 126.537 23.6322 126.664 23.7055C126.794 23.7755 126.897 23.8772 126.974 24.0105C127.051 24.1405 127.089 24.2972 127.089 24.4805C127.089 24.6639 127.051 24.8222 126.974 24.9555C126.897 25.0889 126.794 25.1922 126.664 25.2655C126.537 25.3355 126.392 25.3705 126.229 25.3705ZM126.229 24.9255C126.329 24.9255 126.412 24.8889 126.479 24.8155C126.549 24.7389 126.584 24.6272 126.584 24.4805C126.584 24.3339 126.549 24.2222 126.479 24.1455C126.412 24.0689 126.329 24.0305 126.229 24.0305C126.129 24.0305 126.044 24.0689 125.974 24.1455C125.907 24.2222 125.874 24.3339 125.874 24.4805C125.874 24.6272 125.907 24.7389 125.974 24.8155C126.044 24.8889 126.129 24.9255 126.229 24.9255Z" fill="#05CD99"/>
<g clip-path="url(#clip2_239_2503)">
<path d="M102.79 24.333L104.627 22.6953L106.463 24.333H102.79Z" fill="#05CD99"/>
</g>
<path d="M26.1695 36.5085C25.7495 36.5085 25.3815 36.4165 25.0655 36.2325C24.7535 36.0485 24.5075 35.7945 24.3275 35.4705C24.1515 35.1425 24.0635 34.7645 24.0635 34.3365C24.0635 33.9085 24.1515 33.5325 24.3275 33.2085C24.5075 32.8805 24.7535 32.6245 25.0655 32.4405C25.3815 32.2565 25.7495 32.1645 26.1695 32.1645C26.5855 32.1645 26.9515 32.2565 27.2675 32.4405C27.5835 32.6245 27.8295 32.8805 28.0055 33.2085C28.1815 33.5325 28.2695 33.9085 28.2695 34.3365C28.2695 34.7645 28.1815 35.1425 28.0055 35.4705C27.8295 35.7945 27.5835 36.0485 27.2675 36.2325C26.9515 36.4165 26.5855 36.5085 26.1695 36.5085ZM26.1695 35.8185C26.5695 35.8185 26.8875 35.6865 27.1235 35.4225C27.3635 35.1585 27.4835 34.7965 27.4835 34.3365C27.4835 33.8765 27.3635 33.5145 27.1235 33.2505C26.8875 32.9865 26.5695 32.8545 26.1695 32.8545C25.7695 32.8545 25.4495 32.9865 25.2095 33.2505C24.9695 33.5145 24.8495 33.8765 24.8495 34.3365C24.8495 34.7965 24.9695 35.1585 25.2095 35.4225C25.4495 35.6865 25.7695 35.8185 26.1695 35.8185ZM28.8096 36.4365V33.4605H29.4876L29.5476 33.9645C29.6396 33.7885 29.7716 33.6485 29.9436 33.5445C30.1196 33.4405 30.3256 33.3885 30.5616 33.3885C30.9296 33.3885 31.2156 33.5045 31.4196 33.7365C31.6236 33.9685 31.7256 34.3085 31.7256 34.7565V36.4365H30.9576V34.8285C30.9576 34.5725 30.9056 34.3765 30.8016 34.2405C30.6976 34.1045 30.5356 34.0365 30.3156 34.0365C30.0996 34.0365 29.9216 34.1125 29.7816 34.2645C29.6456 34.4165 29.5776 34.6285 29.5776 34.9005V36.4365H28.8096ZM34.9756 36.4365C34.6636 36.4365 34.4136 36.3605 34.2256 36.2085C34.0376 36.0565 33.9436 35.7865 33.9436 35.3985V34.1025H33.4336V33.4605H33.9436L34.0336 32.6625H34.7116V33.4605H35.5156V34.1025H34.7116V35.4045C34.7116 35.5485 34.7416 35.6485 34.8016 35.7045C34.8656 35.7565 34.9736 35.7825 35.1256 35.7825H35.4976V36.4365H34.9756ZM36.055 36.4365V33.4605H36.739L36.811 34.0185C36.919 33.8265 37.065 33.6745 37.249 33.5625C37.437 33.4465 37.657 33.3885 37.909 33.3885V34.1985H37.693C37.525 34.1985 37.375 34.2245 37.243 34.2765C37.111 34.3285 37.007 34.4185 36.931 34.5465C36.859 34.6745 36.823 34.8525 36.823 35.0805V36.4365H36.055ZM39.3399 36.5085C39.0839 36.5085 38.8739 36.4685 38.7099 36.3885C38.5459 36.3045 38.4239 36.1945 38.3439 36.0585C38.2639 35.9225 38.2239 35.7725 38.2239 35.6085C38.2239 35.3325 38.3319 35.1085 38.5479 34.9365C38.7639 34.7645 39.0879 34.6785 39.5199 34.6785H40.2759V34.6065C40.2759 34.4025 40.2179 34.2525 40.1019 34.1565C39.9859 34.0605 39.8419 34.0125 39.6699 34.0125C39.5139 34.0125 39.3779 34.0505 39.2619 34.1265C39.1459 34.1985 39.0739 34.3065 39.0459 34.4505H38.2959C38.3159 34.2345 38.3879 34.0465 38.5119 33.8865C38.6399 33.7265 38.8039 33.6045 39.0039 33.5205C39.2039 33.4325 39.4279 33.3885 39.6759 33.3885C40.0999 33.3885 40.4339 33.4945 40.6779 33.7065C40.9219 33.9185 41.0439 34.2185 41.0439 34.6065V36.4365H40.3899L40.3179 35.9565C40.2299 36.1165 40.1059 36.2485 39.9459 36.3525C39.7899 36.4565 39.5879 36.5085 39.3399 36.5085ZM39.5139 35.9085C39.7339 35.9085 39.9039 35.8365 40.0239 35.6925C40.1479 35.5485 40.2259 35.3705 40.2579 35.1585H39.6039C39.3999 35.1585 39.2539 35.1965 39.1659 35.2725C39.0779 35.3445 39.0339 35.4345 39.0339 35.5425C39.0339 35.6585 39.0779 35.7485 39.1659 35.8125C39.2539 35.8765 39.3699 35.9085 39.5139 35.9085ZM43.1148 36.5085C42.8108 36.5085 42.5428 36.4425 42.3108 36.3105C42.0788 36.1785 41.8948 35.9945 41.7588 35.7585C41.6268 35.5225 41.5608 35.2525 41.5608 34.9485C41.5608 34.6445 41.6268 34.3745 41.7588 34.1385C41.8948 33.9025 42.0788 33.7185 42.3108 33.5865C42.5428 33.4545 42.8108 33.3885 43.1148 33.3885C43.4948 33.3885 43.8148 33.4885 44.0748 33.6885C44.3348 33.8845 44.5008 34.1565 44.5728 34.5045H43.7628C43.7228 34.3605 43.6428 34.2485 43.5228 34.1685C43.4068 34.0845 43.2688 34.0425 43.1088 34.0425C42.8968 34.0425 42.7168 34.1225 42.5688 34.2825C42.4208 34.4425 42.3468 34.6645 42.3468 34.9485C42.3468 35.2325 42.4208 35.4545 42.5688 35.6145C42.7168 35.7745 42.8968 35.8545 43.1088 35.8545C43.2688 35.8545 43.4068 35.8145 43.5228 35.7345C43.6428 35.6545 43.7228 35.5405 43.7628 35.3925H44.5728C44.5008 35.7285 44.3348 35.9985 44.0748 36.2025C43.8148 36.4065 43.4948 36.5085 43.1148 36.5085ZM45.1345 36.4365V32.1165H45.9025V34.6665L46.9585 33.4605H47.8705L46.6525 34.8165L48.0685 36.4365H47.1085L45.9025 34.9425V36.4365H45.1345Z" fill="#05CD99"/>
<rect x="14" y="31" width="7.00775" height="7.00775" rx="3.50388" fill="#05CD99"/>
<g clip-path="url(#clip3_239_2503)">
<path d="M16.9874 35.2697L16.2848 34.5671C16.2065 34.4888 16.0821 34.4888 16.0038 34.5671C15.9255 34.6454 15.9255 34.7699 16.0038 34.8481L16.8449 35.6893C16.9232 35.7675 17.0497 35.7675 17.1279 35.6893L19.2558 33.5634C19.3341 33.4851 19.3341 33.3606 19.2558 33.2824C19.1775 33.2041 19.0531 33.2041 18.9748 33.2824L16.9874 35.2697Z" fill="white"/>
</g>
</g>
<defs>
<filter id="filter0_d_239_2503" x="3.71956" y="46.6201" width="332.472" height="51.1473" filterUnits="userSpaceOnUse" color-interpolation-filters="sRGB">
<feFlood flood-opacity="0" result="BackgroundImageFix"/>
<feColorMatrix in="SourceAlpha" type="matrix" values="0 0 0 0 0 0 0 0 0 0 0 0 0 0 0 0 0 0 127 0" result="hardAlpha"/>
<feOffset dy="5.6938"/>
<feGaussianBlur stdDeviation="4.59884"/>
<feColorMatrix type="matrix" values="0 0 0 0 0.262745 0 0 0 0 0.0941176 0 0 0 0 1 0 0 0 0.25 0"/>
<feBlend mode="normal" in2="BackgroundImageFix" result="effect1_dropShadow_239_2503"/>
<feBlend mode="normal" in="SourceGraphic" in2="effect1_dropShadow_239_2503" result="shape"/>
</filter>
<linearGradient id="paint0_linear_239_2503" x1="308.767" y1="66.4996" x2="13.7935" y2="66.4997" gradientUnits="userSpaceOnUse">
<stop stop-color="#ED18FF"/>
<stop offset="1" stop-color="#FF1818" stop-opacity="0.28"/>
</linearGradient>
<clipPath id="clip0_239_2503">
<rect width="334" height="151.105" rx="10" fill="white"/>
</clipPath>
<clipPath id="clip1_239_2503">
<rect width="10.5116" height="10.5116" fill="white" transform="translate(307.721 14.4531)"/>
</clipPath>
<clipPath id="clip2_239_2503">
<rect width="8.8141" height="7.86093" fill="white" transform="translate(100.219 19.7471)"/>
</clipPath>
<clipPath id="clip3_239_2503">
<rect width="4.81783" height="4.81783" fill="white" transform="translate(15.1807 32.0176)"/>
</clipPath>
</defs>
</svg>
