<svg width="16" height="15" viewBox="0 0 16 15" fill="none" xmlns="http://www.w3.org/2000/svg">
<path d="M3 13.125C2.82292 13.125 2.67448 13.0651 2.55469 12.9453C2.4349 12.8255 2.375 12.6771 2.375 12.5V10.9844C2.375 10.8177 2.40625 10.6589 2.46875 10.5078C2.53125 10.3568 2.61979 10.224 2.73438 10.1094L10.625 2.23438C10.75 2.11979 10.888 2.03125 11.0391 1.96875C11.1901 1.90625 11.349 1.875 11.5156 1.875C11.6823 1.875 11.8438 1.90625 12 1.96875C12.1562 2.03125 12.2917 2.125 12.4062 2.25L13.2656 3.125C13.3906 3.23958 13.4818 3.375 13.5391 3.53125C13.5964 3.6875 13.625 3.84375 13.625 4C13.625 4.16667 13.5964 4.32552 13.5391 4.47656C13.4818 4.6276 13.3906 4.76562 13.2656 4.89062L5.39062 12.7656C5.27604 12.8802 5.14323 12.9688 4.99219 13.0312C4.84115 13.0938 4.68229 13.125 4.51562 13.125H3ZM11.5 4.875L12.375 4L11.5 3.125L10.625 4L11.5 4.875Z" fill="url(#paint0_linear_242_3629)"/>
<defs>
<linearGradient id="paint0_linear_242_3629" x1="2.375" y1="7.5" x2="13.625" y2="7.5" gradientUnits="userSpaceOnUse">
<stop stop-color="#EAEAEA"/>
<stop offset="1" stop-color="#EAEAEA"/>
</linearGradient>
</defs>
</svg>
