<svg width="24" height="24" viewBox="0 0 24 24" fill="none" xmlns="http://www.w3.org/2000/svg">
<path d="M6.0769 9.05762C5.8644 9.05762 5.68624 8.9857 5.54241 8.84187C5.39874 8.69803 5.3269 8.51987 5.3269 8.30737C5.3269 8.0947 5.39874 7.91653 5.54241 7.77287C5.68624 7.62937 5.8644 7.55762 6.0769 7.55762H17.7499C17.9624 7.55762 18.1405 7.62953 18.2842 7.77337C18.428 7.9172 18.4999 8.09537 18.4999 8.30787C18.4999 8.52053 18.428 8.69862 18.2842 8.84212C18.1405 8.98578 17.9624 9.05762 17.7499 9.05762H6.0769ZM6.0769 12.7499C5.8644 12.7499 5.68624 12.678 5.54241 12.5341C5.39874 12.3903 5.3269 12.2121 5.3269 11.9996C5.3269 11.787 5.39874 11.6089 5.54241 11.4654C5.68624 11.3217 5.8644 11.2499 6.0769 11.2499H17.7499C17.9624 11.2499 18.1405 11.3218 18.2842 11.4656C18.428 11.6095 18.4999 11.7876 18.4999 12.0001C18.4999 12.2128 18.428 12.3909 18.2842 12.5344C18.1405 12.678 17.9624 12.7499 17.7499 12.7499H6.0769ZM6.0769 16.4421C5.8644 16.4421 5.68624 16.3702 5.54241 16.2264C5.39874 16.0825 5.3269 15.9044 5.3269 15.6919C5.3269 15.4792 5.39874 15.3011 5.54241 15.1576C5.68624 15.014 5.8644 14.9421 6.0769 14.9421H17.7499C17.9624 14.9421 18.1405 15.014 18.2842 15.1579C18.428 15.3017 18.4999 15.4799 18.4999 15.6924C18.4999 15.905 18.428 16.0832 18.2842 16.2269C18.1405 16.3704 17.9624 16.4421 17.7499 16.4421H6.0769Z" fill="#E8EAED"/>
</svg>
