<svg width="10" height="15" viewBox="0 0 10 15" fill="none" xmlns="http://www.w3.org/2000/svg">
<path d="M7.71875 8.125H5.125C4.94792 8.125 4.79948 8.0651 4.67969 7.94531C4.5599 7.82552 4.5 7.67708 4.5 7.5C4.5 7.32292 4.5599 7.17448 4.67969 7.05469C4.79948 6.9349 4.94792 6.875 5.125 6.875H7.71875L7.17188 6.3125C7.05729 6.19792 7 6.05469 7 5.88281C7 5.71094 7.0625 5.5625 7.1875 5.4375C7.30208 5.32292 7.44792 5.26562 7.625 5.26562C7.80208 5.26562 7.94792 5.32292 8.0625 5.4375L9.6875 7.0625C9.8125 7.1875 9.875 7.33333 9.875 7.5C9.875 7.66667 9.8125 7.8125 9.6875 7.9375L8.0625 9.5625C7.94792 9.67708 7.80469 9.73698 7.63281 9.74219C7.46094 9.7474 7.3125 9.6875 7.1875 9.5625C7.07292 9.44792 7.01302 9.30469 7.00781 9.13281C7.0026 8.96094 7.05729 8.8125 7.17188 8.6875L7.71875 8.125ZM1.375 14.375C1.03125 14.375 0.736979 14.2526 0.492188 14.0078C0.247396 13.763 0.125 13.4688 0.125 13.125V1.875C0.125 1.53125 0.247396 1.23698 0.492188 0.992188C0.736979 0.747396 1.03125 0.625 1.375 0.625H7.625C7.96875 0.625 8.26302 0.747396 8.50781 0.992188C8.7526 1.23698 8.875 1.53125 8.875 1.875V3.75C8.875 3.92708 8.8151 4.07552 8.69531 4.19531C8.57552 4.3151 8.42708 4.375 8.25 4.375C8.07292 4.375 7.92448 4.3151 7.80469 4.19531C7.6849 4.07552 7.625 3.92708 7.625 3.75H1.375V11.25H7.625C7.625 11.0729 7.6849 10.9245 7.80469 10.8047C7.92448 10.6849 8.07292 10.625 8.25 10.625C8.42708 10.625 8.57552 10.6849 8.69531 10.8047C8.8151 10.9245 8.875 11.0729 8.875 11.25V13.125C8.875 13.4688 8.7526 13.763 8.50781 14.0078C8.26302 14.2526 7.96875 14.375 7.625 14.375H1.375Z" fill="#EAEAEA"/>
</svg>
