<svg width="31" height="30" viewBox="0 0 31 30" fill="none" xmlns="http://www.w3.org/2000/svg">
<path d="M11.75 20H19.25C19.6042 20 19.901 19.8802 20.1406 19.6406C20.3802 19.401 20.5 19.1042 20.5 18.75V13.75C20.5 13.3958 20.3802 13.099 20.1406 12.8594C19.901 12.6198 19.6042 12.5 19.25 12.5H18V11.25C18 10.8958 17.8802 10.599 17.6406 10.3594C17.401 10.1198 17.1042 10 16.75 10H14.25C13.8958 10 13.599 10.1198 13.3594 10.3594C13.1198 10.599 13 10.8958 13 11.25V12.5H11.75C11.3958 12.5 11.099 12.6198 10.8594 12.8594C10.6198 13.099 10.5 13.3958 10.5 13.75V18.75C10.5 19.1042 10.6198 19.401 10.8594 19.6406C11.099 19.8802 11.3958 20 11.75 20ZM14.25 12.5V11.25H16.75V12.5H14.25ZM10.5 23.75C8.0625 23.75 5.99479 22.901 4.29688 21.2031C2.59896 19.5052 1.75 17.4375 1.75 15C1.75 12.5625 2.59896 10.4948 4.29688 8.79688C5.99479 7.09896 8.0625 6.25 10.5 6.25H20.5C22.9375 6.25 25.0052 7.09896 26.7031 8.79688C28.401 10.4948 29.25 12.5625 29.25 15C29.25 17.4375 28.401 19.5052 26.7031 21.2031C25.0052 22.901 22.9375 23.75 20.5 23.75H10.5ZM10.5 21.25H20.5C22.2292 21.25 23.7031 20.6406 24.9219 19.4219C26.1406 18.2031 26.75 16.7292 26.75 15C26.75 13.2708 26.1406 11.7969 24.9219 10.5781C23.7031 9.35938 22.2292 8.75 20.5 8.75H10.5C8.77083 8.75 7.29688 9.35938 6.07812 10.5781C4.85938 11.7969 4.25 13.2708 4.25 15C4.25 16.7292 4.85938 18.2031 6.07812 19.4219C7.29688 20.6406 8.77083 21.25 10.5 21.25Z" fill="#F5F7FA"/>
</svg>
