<svg width="30" height="30" viewBox="0 0 30 30" fill="none" xmlns="http://www.w3.org/2000/svg">
<path d="M5 25C4.3125 25 3.72396 24.7552 3.23438 24.2656C2.74479 23.776 2.5 23.1875 2.5 22.5V7.5C2.5 6.8125 2.74479 6.22396 3.23438 5.73438C3.72396 5.24479 4.3125 5 5 5H25C25.6875 5 26.276 5.24479 26.7656 5.73438C27.2552 6.22396 27.5 6.8125 27.5 7.5V12.5C27.5 12.8542 27.3802 13.151 27.1406 13.3906C26.901 13.6302 26.6042 13.75 26.25 13.75C25.8958 13.75 25.599 13.6302 25.3594 13.3906C25.1198 13.151 25 12.8542 25 12.5V7.5H16.25V12.5C16.25 12.8542 16.1302 13.151 15.8906 13.3906C15.651 13.6302 15.3542 13.75 15 13.75C14.6458 13.75 14.349 13.6302 14.1094 13.3906C13.8698 13.151 13.75 12.8542 13.75 12.5V7.5H5V22.5H12.5C12.8542 22.5 13.151 22.6198 13.3906 22.8594C13.6302 23.099 13.75 23.3958 13.75 23.75C13.75 24.1042 13.6302 24.401 13.3906 24.6406C13.151 24.8802 12.8542 25 12.5 25H5ZM19.375 27.5C18.8542 27.5 18.4115 27.3177 18.0469 26.9531C17.6823 26.5885 17.5 26.1458 17.5 25.625V22.1875H20V25H25V22.1875H27.5V25.625C27.5 26.1458 27.3177 26.5885 26.9531 26.9531C26.5885 27.3177 26.1458 27.5 25.625 27.5H19.375ZM18.2188 22.5C17.6354 22.5 17.1667 22.2708 16.8125 21.8125C16.4583 21.3542 16.3333 20.8333 16.4375 20.25L16.9375 17.75C17.0417 17.3125 17.2604 16.9531 17.5938 16.6719C17.9271 16.3906 18.3125 16.25 18.75 16.25H26.25C26.6875 16.25 27.0729 16.3906 27.4062 16.6719C27.7396 16.9531 27.9583 17.3125 28.0625 17.75L28.5625 20.25C28.6667 20.8333 28.5417 21.3542 28.1875 21.8125C27.8333 22.2708 27.3646 22.5 26.7812 22.5H18.2188ZM19.0312 20H25.9688L25.7188 18.75H19.2812L19.0312 20ZM7.5 20H11.25C11.6042 20 11.901 19.8802 12.1406 19.6406C12.3802 19.401 12.5 19.1042 12.5 18.75C12.5 18.3958 12.3802 18.099 12.1406 17.8594C11.901 17.6198 11.6042 17.5 11.25 17.5H7.5C7.14583 17.5 6.84896 17.6198 6.60938 17.8594C6.36979 18.099 6.25 18.3958 6.25 18.75C6.25 19.1042 6.36979 19.401 6.60938 19.6406C6.84896 19.8802 7.14583 20 7.5 20ZM7.5 16.25H11.25C11.6042 16.25 11.901 16.1302 12.1406 15.8906C12.3802 15.651 12.5 15.3542 12.5 15C12.5 14.6458 12.3802 14.349 12.1406 14.1094C11.901 13.8698 11.6042 13.75 11.25 13.75H7.5C7.14583 13.75 6.84896 13.8698 6.60938 14.1094C6.36979 14.349 6.25 14.6458 6.25 15C6.25 15.3542 6.36979 15.651 6.60938 15.8906C6.84896 16.1302 7.14583 16.25 7.5 16.25ZM7.5 12.5H11.25C11.6042 12.5 11.901 12.3802 12.1406 12.1406C12.3802 11.901 12.5 11.6042 12.5 11.25C12.5 10.8958 12.3802 10.599 12.1406 10.3594C11.901 10.1198 11.6042 10 11.25 10H7.5C7.14583 10 6.84896 10.1198 6.60938 10.3594C6.36979 10.599 6.25 10.8958 6.25 11.25C6.25 11.6042 6.36979 11.901 6.60938 12.1406C6.84896 12.3802 7.14583 12.5 7.5 12.5ZM18.75 12.5C18.3958 12.5 18.099 12.3802 17.8594 12.1406C17.6198 11.901 17.5 11.6042 17.5 11.25C17.5 10.8958 17.6198 10.599 17.8594 10.3594C18.099 10.1198 18.3958 10 18.75 10H22.5C22.8542 10 23.151 10.1198 23.3906 10.3594C23.6302 10.599 23.75 10.8958 23.75 11.25C23.75 11.6042 23.6302 11.901 23.3906 12.1406C23.151 12.3802 22.8542 12.5 22.5 12.5H18.75Z" fill="#F5F7FA"/>
</svg>
